<svg width="30" height="30" viewBox="0 0 30 30" fill="none" xmlns="http://www.w3.org/2000/svg">
    <path
        d="M6.00001 10C6.70214 9.99999 7.3919 9.81516 7.99995 9.46408C8.60801 9.11301 9.11295 8.60807 9.46401 8.00001H24C24.5304 8.00001 25.0392 7.78929 25.4142 7.41422C25.7893 7.03915 26 6.53044 26 6.00001C26 5.46957 25.7893 4.96087 25.4142 4.58579C25.0392 4.21072 24.5304 4.00001 24 4.00001H9.46401C9.11292 3.39198 8.60798 2.88707 7.99992 2.53603C7.39187 2.18499 6.70212 2.00018 6.00001 2.00018C5.2979 2.00018 4.60815 2.18499 4.0001 2.53603C3.39204 2.88707 2.8871 3.39198 2.53601 4.00001H6.00001V8.00001H2.53601C2.88708 8.60807 3.39201 9.11301 4.00007 9.46408C4.60813 9.81516 5.29788 9.99999 6.00001 10ZM4.29201 18.708C4.10507 18.8954 4.00007 19.1493 4.00001 19.414V27C4.00001 27.2652 4.10537 27.5196 4.2929 27.7071C4.48044 27.8947 4.73479 28 5.00001 28H8.00001C8.26523 28 8.51958 27.8947 8.70712 27.7071C8.89465 27.5196 9.00001 27.2652 9.00001 27V26H21V27C21 27.2652 21.1054 27.5196 21.2929 27.7071C21.4804 27.8947 21.7348 28 22 28H25C25.2652 28 25.5196 27.8947 25.7071 27.7071C25.8947 27.5196 26 27.2652 26 27V19.414C26 19.1493 25.8949 18.8954 25.708 18.708L24 17L21.292 12.486C21.203 12.3375 21.077 12.2146 20.9262 12.1294C20.7755 12.0442 20.6052 11.9996 20.432 12H9.56801C9.39519 12 9.22531 12.0447 9.07494 12.1299C8.92457 12.2151 8.79884 12.3378 8.71001 12.486L6.00001 17L4.29201 18.708ZM22.268 18H7.73201L10.132 14H19.868L22.268 18ZM11 21.656V22.4C11 22.5591 10.9368 22.7118 10.8243 22.8243C10.7118 22.9368 10.5591 23 10.4 23H6.60001C6.44088 23 6.28827 22.9368 6.17575 22.8243C6.06322 22.7118 6.00001 22.5591 6.00001 22.4V20.732C6.00005 20.6432 6.01979 20.5556 6.05781 20.4753C6.09583 20.3951 6.15117 20.3243 6.21986 20.2681C6.28854 20.2118 6.36885 20.1715 6.45499 20.1501C6.54114 20.1286 6.63097 20.1265 6.71801 20.144L10.358 20.872C10.5391 20.9085 10.7019 21.0065 10.819 21.1494C10.936 21.2923 11 21.4713 11 21.656ZM24 20.976V22.4C24 22.5591 23.9368 22.7118 23.8243 22.8243C23.7118 22.9368 23.5591 23 23.4 23H19.6C19.4409 23 19.2883 22.9368 19.1757 22.8243C19.0632 22.7118 19 22.5591 19 22.4V21.492C19.0001 21.3534 19.0481 21.2191 19.136 21.1119C19.2239 21.0047 19.3461 20.9313 19.482 20.904L23.042 20.192C23.1581 20.1686 23.278 20.1713 23.3929 20.1999C23.5078 20.2284 23.615 20.2821 23.7067 20.3571C23.7983 20.4322 23.8722 20.5266 23.9229 20.6336C23.9736 20.7406 24 20.8576 24 20.976Z"
        fill="#E5383B" />
</svg>