<svg width="70" height="70" viewBox="0 0 70 70" fill="none" xmlns="http://www.w3.org/2000/svg">
    <path
        d="M20.3263 20.3263C20.5295 20.1225 20.7708 19.9609 21.0366 19.8506C21.3024 19.7404 21.5873 19.6836 21.875 19.6836C22.1627 19.6836 22.4476 19.7404 22.7134 19.8506C22.9792 19.9609 23.2206 20.1225 23.4238 20.3263L35 31.9069L46.5763 20.3263C46.7796 20.1229 47.0211 19.9615 47.2868 19.8515C47.5526 19.7414 47.8374 19.6847 48.125 19.6847C48.4126 19.6847 48.6974 19.7414 48.9632 19.8515C49.2289 19.9615 49.4704 20.1229 49.6738 20.3263C49.8771 20.5296 50.0385 20.7711 50.1485 21.0368C50.2586 21.3026 50.3153 21.5874 50.3153 21.875C50.3153 22.1626 50.2586 22.4474 50.1485 22.7132C50.0385 22.9789 49.8771 23.2204 49.6738 23.4238L38.0931 35L49.6738 46.5762C49.8771 46.7796 50.0385 47.0211 50.1485 47.2868C50.2586 47.5526 50.3153 47.8374 50.3153 48.125C50.3153 48.4126 50.2586 48.6974 50.1485 48.9632C50.0385 49.2289 49.8771 49.4704 49.6738 49.6737C49.4704 49.8771 49.2289 50.0385 48.9632 50.1485C48.6974 50.2586 48.4126 50.3153 48.125 50.3153C47.8374 50.3153 47.5526 50.2586 47.2868 50.1485C47.0211 50.0385 46.7796 49.8771 46.5763 49.6737L35 38.0931L23.4238 49.6737C23.2204 49.8771 22.9789 50.0385 22.7132 50.1485C22.4474 50.2586 22.1626 50.3153 21.875 50.3153C21.5874 50.3153 21.3026 50.2586 21.0368 50.1485C20.7711 50.0385 20.5296 49.8771 20.3263 49.6737C20.1229 49.4704 19.9615 49.2289 19.8515 48.9632C19.7414 48.6974 19.6847 48.4126 19.6847 48.125C19.6847 47.8374 19.7414 47.5526 19.8515 47.2868C19.9615 47.0211 20.1229 46.7796 20.3263 46.5762L31.9069 35L20.3263 23.4238C20.1225 23.2206 19.9609 22.9792 19.8506 22.7134C19.7404 22.4476 19.6836 22.1627 19.6836 21.875C19.6836 21.5873 19.7404 21.3024 19.8506 21.0366C19.9609 20.7708 20.1225 20.5295 20.3263 20.3263Z"
        fill="black" />
</svg>