<svg width="38" height="38" viewBox="0 0 38 38" fill="none" xmlns="http://www.w3.org/2000/svg">
    <path fill-rule="evenodd" clip-rule="evenodd"
        d="M11.8195 1.68781C13.6768 1.60231 14.2689 1.58331 18.9999 1.58331C23.7309 1.58331 24.3231 1.6039 26.1788 1.68781C28.0344 1.77173 29.3011 2.06781 30.4094 2.4969C31.57 2.93548 32.6229 3.62106 33.4938 4.50773C34.3804 5.37698 35.0644 6.42831 35.5014 7.59048C35.9321 8.69881 36.2266 9.96548 36.3121 11.818C36.3976 13.6784 36.4166 14.2706 36.4166 19C36.4166 23.731 36.396 24.3231 36.3121 26.1804C36.2282 28.0329 35.9321 29.2996 35.5014 30.4079C35.0644 31.5702 34.3793 32.6233 33.4938 33.4938C32.6229 34.3805 31.57 35.0645 30.4094 35.5015C29.3011 35.9322 28.0344 36.2267 26.1819 36.3121C24.3231 36.3977 23.7309 36.4166 18.9999 36.4166C14.2689 36.4166 13.6768 36.3961 11.8195 36.3121C9.967 36.2282 8.70034 35.9322 7.592 35.5015C6.42971 35.0644 5.37663 34.3793 4.50609 33.4938C3.62002 32.624 2.93433 31.5715 2.49684 30.4095C2.06775 29.3011 1.77325 28.0345 1.68775 26.182C1.60225 24.3216 1.58325 23.7294 1.58325 19C1.58325 14.269 1.60384 13.6768 1.68775 11.8211C1.77167 9.96548 2.06775 8.69881 2.49684 7.59048C2.93498 6.42844 3.62119 5.37589 4.50767 4.50615C5.37698 3.62027 6.429 2.9346 7.59042 2.4969C8.69875 2.06781 9.96542 1.77331 11.8179 1.68781H11.8195ZM26.0378 4.82281C24.2012 4.7389 23.6502 4.72148 18.9999 4.72148C14.3497 4.72148 13.7987 4.7389 11.962 4.82281C10.2631 4.9004 9.34159 5.18381 8.72725 5.4229C7.915 5.73956 7.33392 6.11481 6.72434 6.7244C6.14649 7.28656 5.70179 7.97093 5.42284 8.72731C5.18375 9.34165 4.90034 10.2631 4.82275 11.9621C4.73884 13.7987 4.72142 14.3497 4.72142 19C4.72142 23.6502 4.73884 24.2012 4.82275 26.0379C4.90034 27.7368 5.18375 28.6583 5.42284 29.2726C5.7015 30.0279 6.14642 30.7135 6.72434 31.2756C7.28642 31.8535 7.972 32.2984 8.72725 32.5771C9.34159 32.8162 10.2631 33.0996 11.962 33.1772C13.7987 33.2611 14.3481 33.2785 18.9999 33.2785C23.6518 33.2785 24.2012 33.2611 26.0378 33.1772C27.7368 33.0996 28.6583 32.8162 29.2726 32.5771C30.0848 32.2604 30.6659 31.8851 31.2755 31.2756C31.8534 30.7135 32.2983 30.0279 32.577 29.2726C32.8161 28.6583 33.0995 27.7368 33.1771 26.0379C33.261 24.2012 33.2784 23.6502 33.2784 19C33.2784 14.3497 33.261 13.7987 33.1771 11.9621C33.0995 10.2631 32.8161 9.34165 32.577 8.72731C32.2603 7.91506 31.8851 7.33398 31.2755 6.7244C30.7133 6.14659 30.029 5.7019 29.2726 5.4229C28.6583 5.18381 27.7368 4.9004 26.0378 4.82281ZM16.7753 24.3691C18.0177 24.8862 19.4011 24.956 20.6892 24.5665C21.9773 24.177 23.0903 23.3524 23.838 22.2335C24.5856 21.1146 24.9217 19.7709 24.7887 18.4317C24.6556 17.0926 24.0618 15.8412 23.1087 14.8912C22.501 14.284 21.7663 13.819 20.9574 13.5298C20.1486 13.2406 19.2856 13.1343 18.4307 13.2186C17.5758 13.3029 16.7502 13.5758 16.0134 14.0174C15.2766 14.4591 14.6469 15.0587 14.1696 15.7729C13.6924 16.4872 13.3794 17.2984 13.2532 18.1481C13.1271 18.9978 13.1909 19.8649 13.4401 20.687C13.6893 21.5092 14.1177 22.2658 14.6944 22.9025C15.2711 23.5391 15.9818 24.04 16.7753 24.3691ZM12.6698 12.6698C13.501 11.8385 14.4879 11.1791 15.5741 10.7292C16.6602 10.2793 17.8243 10.0478 18.9999 10.0478C20.1755 10.0478 21.3397 10.2793 22.4258 10.7292C23.5119 11.1791 24.4988 11.8385 25.3301 12.6698C26.1614 13.5011 26.8208 14.488 27.2707 15.5741C27.7206 16.6603 27.9521 17.8244 27.9521 19C27.9521 20.1756 27.7206 21.3397 27.2707 22.4258C26.8208 23.512 26.1614 24.4989 25.3301 25.3301C23.6512 27.009 21.3742 27.9522 18.9999 27.9522C16.6256 27.9522 14.3486 27.009 12.6698 25.3301C10.9909 23.6513 10.0477 21.3743 10.0477 19C10.0477 16.6257 10.9909 14.3487 12.6698 12.6698ZM29.9376 11.381C30.1436 11.1867 30.3085 10.953 30.4226 10.6938C30.5366 10.4346 30.5975 10.1551 30.6017 9.87195C30.6058 9.58879 30.5531 9.30768 30.4466 9.04526C30.3401 8.78285 30.1821 8.54446 29.9819 8.34421C29.7816 8.14396 29.5432 7.98593 29.2808 7.87947C29.0184 7.773 28.7373 7.72028 28.4541 7.7244C28.171 7.72853 27.8915 7.78943 27.6323 7.9035C27.3731 8.01757 27.1394 8.18248 26.9451 8.38848C26.5672 8.78911 26.3603 9.32126 26.3683 9.87195C26.3763 10.4227 26.5986 10.9485 26.9881 11.338C27.3775 11.7274 27.9034 11.9498 28.4541 11.9578C29.0048 11.9658 29.537 11.7589 29.9376 11.381Z"
        fill="#D3D3D3" />
</svg>