<svg width="30" height="30" viewBox="0 0 30 30" fill="none" xmlns="http://www.w3.org/2000/svg">
    <path
        d="M21.6628 4.34624C21.4836 5.0537 21.5446 5.80068 21.8363 6.46968L13.5994 15H8.20315C6.54378 15 5.18065 15.84 4.25346 17.0325C3.33096 18.2184 2.81253 19.7784 2.81253 21.3291C2.81253 21.5155 2.8866 21.6944 3.01847 21.8262C3.15033 21.9581 3.32917 22.0322 3.51565 22.0322C3.70213 22.0322 3.88097 21.9581 4.01283 21.8262C4.1447 21.6944 4.21878 21.5155 4.21878 21.3291C4.21878 20.0756 4.64252 18.8231 5.36252 17.8978C6.07877 16.9772 7.0594 16.4072 8.20315 16.4072H12.2419L2.07096 26.9419C1.80846 27.2137 1.80846 27.6562 2.08034 27.9197C2.35221 28.1916 2.78534 28.1916 3.06753 27.9291L14.9175 16.4072H20.3906C24.361 16.4072 27.7088 13.1362 27.6563 9.13218C27.6493 8.50272 27.5437 7.87825 27.3431 7.28155C27.6269 6.95292 27.8426 6.57123 27.9778 6.15861C28.113 5.746 28.1649 5.31066 28.1306 4.87782C28.0963 4.44498 27.9764 4.02326 27.778 3.63709C27.5795 3.25092 27.3063 2.90798 26.9743 2.62816C26.6423 2.34833 26.2581 2.13718 25.8439 2.00693C25.4297 1.87669 24.9938 1.82995 24.5614 1.86942C24.129 1.90889 23.7087 2.03378 23.3249 2.23687C22.9411 2.43995 22.6015 2.71718 22.3256 3.05249C21.6946 2.90189 21.0488 2.8214 20.4 2.81249C17.4188 2.77124 14.7366 4.31061 13.6453 7.00124C13.6106 7.0868 13.5931 7.17837 13.5938 7.2707C13.5944 7.36304 13.6133 7.45434 13.6492 7.5394C13.7218 7.71117 13.8597 7.84706 14.0325 7.91717C14.2053 7.98729 14.3989 7.98589 14.5707 7.91328C14.6557 7.87733 14.7329 7.82497 14.7977 7.75921C14.8625 7.69344 14.9137 7.61555 14.9485 7.52999C15.7885 5.45811 17.8866 4.18405 20.3813 4.21874C20.82 4.22436 21.2494 4.26749 21.6628 4.3453V4.34624ZM23.4535 4.94342C24.2119 5.32405 24.8578 5.84343 25.3378 6.47343C25.1081 6.55972 24.8597 6.58438 24.6175 6.54495C24.3752 6.50552 24.1475 6.40337 23.957 6.24867C23.7665 6.09397 23.6197 5.89209 23.5314 5.66311C23.4431 5.43413 23.4162 5.18601 23.4535 4.94342ZM24.3628 3.83436C24.5903 3.7515 24.8353 3.72875 25.0741 3.76832C25.3129 3.80789 25.5375 3.90844 25.726 4.06023C25.9146 4.21203 26.0608 4.40993 26.1505 4.63479C26.2401 4.85964 26.2702 5.10384 26.2378 5.34374C25.7081 4.73254 25.0731 4.22132 24.3628 3.83436ZM26.1356 8.17311C26.206 8.48249 26.2453 8.8078 26.25 9.15092C26.2913 12.3459 23.6016 15.0009 20.3906 15.0009H16.365L23.4394 8.12249C23.865 8.32499 24.3413 8.43749 24.8438 8.43749C25.3031 8.43749 25.7391 8.34374 26.1356 8.17311Z"
        fill="#E5383B" />
</svg>