<svg width="23" height="23" viewBox="0 0 23 23" fill="none" xmlns="http://www.w3.org/2000/svg">
    <g clip-path="url(#clip0_31_55)">
        <path
            d="M1.1615 0L0 1.1615L2.04612 4.69996L3.37304 4.50535L11.4726 12.6058L10.7817 13.2692C10.4278 13.6231 10.4278 14.1592 10.7817 14.513L11.1408 14.873C11.4947 15.2269 12.0361 15.2269 12.3015 14.873L13.3524 15.9231C13.2639 16.4538 13.3524 17.0846 13.7947 17.5269L18.5769 22.2817C19.55 23.2548 21.1423 23.2548 22.1154 22.2817C23.2654 21.2202 23.2548 19.6332 22.2817 18.6601L17.5269 13.877C17.0846 13.4347 16.4538 13.2577 15.9231 13.4347L14.7616 12.3846C15.027 12.0308 15.027 11.4894 14.7616 11.2231L14.4298 10.8923C14.3494 10.8084 14.2529 10.7417 14.146 10.6961C14.0391 10.6505 13.9242 10.627 13.808 10.627C13.6918 10.627 13.5768 10.6505 13.4699 10.6961C13.363 10.7417 13.2665 10.8084 13.1861 10.8923L12.6058 11.4726L4.50623 3.37304L4.69908 2.04612L1.16062 0L1.1615 0ZM18.4115 0.0274231C16.6662 -0.117654 14.352 1.03942 13.2692 2.04523C11.937 3.37746 12.1546 5.11927 13.2135 6.80092L11.3346 8.68073L12.6615 10.1731C13.3692 9.55385 14.413 9.55385 15.1207 10.1731L15.4808 10.5322L15.5639 10.6154L16.338 9.84135C17.9373 10.7817 19.6022 10.917 20.8716 9.64762C22.1101 8.49762 23.4529 5.66154 22.8337 3.98077L20.3462 6.55146C19.9923 6.90531 19.4562 6.90531 19.1024 6.55146L16.5308 3.98077C16.4469 3.90035 16.3802 3.8038 16.3346 3.69693C16.289 3.59006 16.2656 3.47507 16.2656 3.35888C16.2656 3.2427 16.289 3.12771 16.3346 3.02084C16.3802 2.91397 16.4469 2.81742 16.5308 2.737L19.1033 0.166308C18.8821 0.0884615 18.661 0.0486538 18.4115 0.0274231ZM8.68073 11.0577L5.47312 14.2644C5.12843 14.1878 4.77615 14.1507 4.42308 14.1538C1.94615 14.1538 0 16.1 0 18.5769C0 21.0538 1.94615 23 4.42308 23C6.9 23 8.84615 21.0538 8.84615 18.5769C8.84615 18.1231 8.7745 17.687 8.65242 17.2774L10.5322 15.3976L10.2562 15.0385C9.54854 14.3308 9.55385 13.2586 10.1731 12.55L8.67985 11.0577H8.68073ZM15.5365 15.0942C15.6471 15.0942 15.7515 15.1154 15.8399 15.2048L21.0653 20.4293C21.2423 20.6062 21.2423 20.8875 21.0653 21.0645C20.8884 21.2414 20.6053 21.2414 20.4284 21.0645L15.2048 15.8399C15.0278 15.663 15.0278 15.3817 15.2048 15.2048C15.2932 15.1163 15.4259 15.0942 15.5365 15.0942ZM5.03169 16.2813L6.71777 17.9683L6.10915 20.2621L3.81535 20.8707L2.12838 19.1838L2.737 16.89L5.03169 16.2813V16.2813Z"
            fill="#E5383B" />
    </g>
    <defs>
        <clipPath id="clip0_31_55">
            <rect width="23" height="23" fill="white" />
        </clipPath>
    </defs>
</svg>