<svg width="30" height="30" viewBox="0 0 30 30" fill="none" xmlns="http://www.w3.org/2000/svg">
    <g clip-path="url(#clip0_138_102)">
        <path fill-rule="evenodd" clip-rule="evenodd"
            d="M21.7687 17.9775C21.3962 17.7913 19.57 16.8938 19.23 16.7688C18.89 16.645 18.6425 16.5838 18.3937 16.9563C18.1462 17.3263 17.435 18.1638 17.2187 18.4113C17.0012 18.66 16.785 18.69 16.4137 18.505C16.0425 18.3175 14.845 17.9263 13.4262 16.6613C12.3225 15.6763 11.5762 14.46 11.36 14.0875C11.1437 13.7163 11.3362 13.515 11.5225 13.33C11.69 13.1638 11.8937 12.8963 12.08 12.68C12.2662 12.4625 12.3275 12.3075 12.4512 12.0588C12.5762 11.8113 12.5137 11.595 12.42 11.4088C12.3275 11.2225 11.585 9.39377 11.275 8.65002C10.9737 7.92627 10.6675 8.02502 10.44 8.01252C10.2225 8.00252 9.975 8.00002 9.7275 8.00002C9.48 8.00002 9.0775 8.09252 8.7375 8.46502C8.39625 8.83627 7.4375 9.73502 7.4375 11.5638C7.4375 13.3913 8.7675 15.1575 8.95375 15.4063C9.14 15.6538 11.5725 19.4063 15.2987 21.015C16.1862 21.3975 16.8775 21.6263 17.4162 21.7963C18.3062 22.08 19.1162 22.04 19.7562 21.9438C20.4687 21.8375 21.9537 21.045 22.2637 20.1775C22.5725 19.31 22.5725 18.5663 22.48 18.4113C22.3875 18.2563 22.14 18.1638 21.7675 17.9775H21.7687ZM14.9912 27.2313H14.9862C12.773 27.2317 10.6005 26.6367 8.69625 25.5088L8.24625 25.2413L3.56875 26.4688L4.8175 21.9088L4.52375 21.4413C3.28642 19.4717 2.63162 17.1922 2.635 14.8663C2.6375 8.05377 8.18 2.51127 14.9962 2.51127C18.2962 2.51127 21.3987 3.79877 23.7312 6.13377C24.8817 7.2795 25.7936 8.64198 26.4141 10.1424C27.0346 11.6428 27.3514 13.2514 27.3462 14.875C27.3437 21.6875 21.8012 27.2313 14.9912 27.2313ZM25.5062 4.36002C24.129 2.97368 22.4903 1.87444 20.6851 1.12602C18.8799 0.377601 16.9442 -0.00512583 14.99 2.07044e-05C6.7975 2.07044e-05 0.1275 6.66877 0.125 14.865C0.121204 17.4735 0.805468 20.0368 2.10875 22.2963L0 30L7.88 27.9325C10.0598 29.1202 12.5026 29.7425 14.985 29.7425H14.9912C23.1837 29.7425 29.8537 23.0738 29.8562 14.8763C29.8623 12.9229 29.4809 10.9876 28.7343 9.18256C27.9876 7.37748 26.8904 5.73836 25.5062 4.36002Z"
            fill="#161A1D" />
    </g>
    <defs>
        <clipPath id="clip0_138_102">
            <rect width="30" height="30" fill="white" />
        </clipPath>
    </defs>
</svg>