<svg width="60" height="60" viewBox="0 0 60 60" fill="none" xmlns="http://www.w3.org/2000/svg">
    <g clip-path="url(#clip0_74_107)">
        <path
            d="M1.28386 29.6409C1.28245 34.6821 2.60979 39.6044 5.1337 43.943L1.04248 58.7667L16.3294 54.789C20.5575 57.0732 25.2948 58.2701 30.1089 58.2704H30.1216C46.0138 58.2704 58.9504 45.4372 58.9572 29.6635C58.9602 22.02 55.9634 14.8325 50.5186 9.4251C45.0748 4.01813 37.8346 1.03883 30.1204 1.03534C14.2263 1.03534 1.29065 13.8679 1.28409 29.6409"
            fill="url(#paint0_linear_74_107)" />
        <path
            d="M0.252948 29.6316C0.251308 34.8542 1.62622 39.9525 4.24012 44.4465L0.00219727 59.8016L15.8372 55.6814C20.2003 58.0421 25.1127 59.2867 30.1113 59.2886H30.1242C46.5865 59.2886 59.9879 45.9937 59.9949 29.6553C59.9977 21.7372 56.8931 14.2914 51.2538 8.69023C45.6138 3.08977 38.1147 0.00325581 30.1242 0C13.659 0 0.259744 13.293 0.253182 29.6316H0.252948ZM9.68305 43.6725L9.09179 42.7411C6.60632 38.8193 5.29444 34.2872 5.29632 29.6335C5.30171 16.0532 16.4388 5.00465 30.1335 5.00465C36.7655 5.00744 42.9982 7.57302 47.6861 12.2279C52.3737 16.8832 54.9532 23.0716 54.9515 29.6535C54.9454 43.2337 43.8081 54.2837 30.1242 54.2837H30.1143C25.6587 54.2814 21.2888 53.0939 17.4779 50.85L16.571 50.3163L7.17414 52.7611L9.68305 43.6723V43.6725Z"
            fill="url(#paint1_linear_74_107)" />
        <path
            d="M22.6599 17.2437C22.1007 16.0105 21.5123 15.9856 20.9805 15.9639C20.5451 15.9453 20.0474 15.9467 19.5501 15.9467C19.0523 15.9467 18.2436 16.1326 17.56 16.8733C16.8757 17.6146 14.9475 19.4063 14.9475 23.0502C14.9475 26.6944 17.6221 30.216 17.995 30.7107C18.3683 31.2044 23.1583 38.9216 30.7446 41.8905C37.0494 44.3577 38.3325 43.867 39.7008 43.7433C41.0694 43.62 44.1169 41.9521 44.7386 40.2226C45.3608 38.4933 45.3608 37.0109 45.1743 36.7012C44.9877 36.3926 44.49 36.2072 43.7436 35.837C42.9969 35.4665 39.3275 33.6747 38.6435 33.4274C37.9592 33.1805 37.4617 33.0572 36.9639 33.7988C36.4662 34.5393 35.0369 36.2072 34.6012 36.7012C34.166 37.1963 33.7304 37.2579 32.9842 36.8874C32.2374 36.5158 29.8337 35.7347 26.9819 33.2116C24.7631 31.2484 23.2652 28.824 22.8298 28.0823C22.3943 27.3419 22.7831 26.9405 23.1574 26.5714C23.4927 26.2395 23.904 25.7065 24.2776 25.2742C24.6497 24.8416 24.7739 24.533 25.0228 24.0391C25.2719 23.5446 25.1472 23.1121 24.9609 22.7416C24.7739 22.3712 23.3235 18.7084 22.6599 17.244"
            fill="white" />
    </g>
    <defs>
        <linearGradient id="paint0_linear_74_107" x1="29.9998" y1="58.7667" x2="29.9998" y2="1.03534"
            gradientUnits="userSpaceOnUse">
            <stop stop-color="#1FAF38" />
            <stop offset="1" stop-color="#60D669" />
        </linearGradient>
        <linearGradient id="paint1_linear_74_107" x1="29.9986" y1="59.8016" x2="29.9986" y2="0"
            gradientUnits="userSpaceOnUse">
            <stop stop-color="#F9F9F9" />
            <stop offset="1" stop-color="white" />
        </linearGradient>
        <clipPath id="clip0_74_107">
            <rect width="60" height="60" fill="white" />
        </clipPath>
    </defs>
</svg>